<svg width="20" height="20" viewBox="0 0 20 20" fill="none" xmlns="http://www.w3.org/2000/svg">
<g opacity="0.2">
<rect opacity="0.01" width="20" height="20" fill="black"/>
<path fill-rule="evenodd" clip-rule="evenodd" d="M9.40833 17.2583C9.5656 17.4143 9.7785 17.5013 10 17.5C10.2215 17.5013 10.4344 17.4143 10.5917 17.2583L17.0667 10.775C18.757 9.06698 18.757 6.31639 17.0667 4.60835C15.3624 2.90887 12.6043 2.90887 10.9 4.60835L10 5.50835L9.1 4.60835C7.39571 2.90887 4.63762 2.90887 2.93333 4.60835C1.24296 6.31639 1.24296 9.06698 2.93333 10.775L9.40833 17.2583ZM4.11666 5.78335C4.6199 5.27887 5.30411 4.99679 6.01666 5.00001C6.72922 4.99679 7.41343 5.27887 7.91666 5.78335L9.40833 7.28335C9.5648 7.44111 9.7778 7.52985 10 7.52985C10.2222 7.52985 10.4352 7.44111 10.5917 7.28335L12.0833 5.78335C13.1497 4.7759 14.817 4.7759 15.8833 5.78335C16.9311 6.8366 16.9311 8.53842 15.8833 9.59168L10 15.4833L4.11666 9.59168C3.06893 8.53842 3.06893 6.8366 4.11666 5.78335Z" fill="black"/>
</g>
</svg>
