<svg width="20" height="20" viewBox="0 0 20 20" fill="none" xmlns="http://www.w3.org/2000/svg">
<g opacity="0.2">
<rect opacity="0.01" width="20" height="20" fill="black"/>
<path d="M10 10C10.4602 10 10.8333 9.62691 10.8333 9.16668C10.8333 8.70644 10.4602 8.33334 10 8.33334C9.53977 8.33334 9.16667 8.70644 9.16667 9.16668C9.16667 9.62691 9.53977 10 10 10Z" fill="black"/>
<path d="M13.3333 10C13.7936 10 14.1667 9.62691 14.1667 9.16668C14.1667 8.70644 13.7936 8.33334 13.3333 8.33334C12.8731 8.33334 12.5 8.70644 12.5 9.16668C12.5 9.62691 12.8731 10 13.3333 10Z" fill="black"/>
<path d="M6.66666 10C7.1269 10 7.49999 9.62691 7.49999 9.16668C7.49999 8.70644 7.1269 8.33334 6.66666 8.33334C6.20642 8.33334 5.83333 8.70644 5.83333 9.16668C5.83333 9.62691 6.20642 10 6.66666 10Z" fill="black"/>
<path fill-rule="evenodd" clip-rule="evenodd" d="M4.16667 2.5H15.8333C17.2141 2.5 18.3333 3.61929 18.3333 5V13.3333C18.3333 14.714 17.2141 15.8333 15.8333 15.8333H7.12501C6.96417 15.8271 6.80498 15.8677 6.66667 15.95L2.92501 18.2167C2.79638 18.293 2.64957 18.3333 2.50001 18.3333C2.35685 18.3329 2.21622 18.2956 2.09167 18.225C1.8296 18.0777 1.66719 17.8006 1.66667 17.5V5C1.66667 3.61929 2.78596 2.5 4.16667 2.5ZM15.8333 14.1667C16.2936 14.1667 16.6667 13.7936 16.6667 13.3333V5C16.6667 4.53976 16.2936 4.16667 15.8333 4.16667H4.16667C3.70643 4.16667 3.33334 4.53976 3.33334 5V16.025L5.83334 14.525C6.22325 14.2902 6.66986 14.1663 7.12501 14.1667H15.8333Z" fill="black"/>
</g>
</svg>
