<svg width="76" height="30" viewBox="0 0 76 30" fill="none" xmlns="http://www.w3.org/2000/svg">
<path fill-rule="evenodd" clip-rule="evenodd" d="M52.9003 24.5522C53.73 23.6639 54.5011 22.8382 55.3713 22.4829C55.566 19.4707 57.1445 16.6761 58.7931 14.1979C58.9454 13.9581 59.1331 13.7539 59.3177 13.553C59.4728 13.3843 59.6257 13.2179 59.7537 13.0348C60.9543 11.3102 62.6753 9.26471 64.6764 9.26471C65.5169 9.26471 66.5575 9.50535 67.398 10.2273C67.7582 10.5481 67.8782 10.7086 67.9983 11.0294C68.5986 12.5936 68.8388 12.8743 69.7593 12.8743C69.9928 12.8743 70.2688 12.8561 70.606 12.8339C71.1355 12.7989 71.8162 12.754 72.721 12.754C74.602 12.754 75.8427 13.4759 75.8427 14.1578C75.8427 14.5588 75.5225 14.7193 75.1223 14.8797C74.8714 14.9695 74.7489 15.0593 74.6362 15.1419C74.4973 15.2437 74.3732 15.3346 74.0417 15.4011C73.5631 15.4778 73.1212 15.6004 72.672 15.725C72.1822 15.8609 71.6838 15.9992 71.1201 16.0829C70.5597 16.1631 70.0394 16.1631 69.6392 16.1631C69.4791 16.1631 69.3591 16.2834 69.279 16.6043C68.2384 20.8556 66.8777 24.2246 64.3963 26.9519L64.3137 27.0416C63.3648 28.0733 62.1461 29.3984 60.4741 29.3984C60.0338 29.3984 59.5535 29.2781 59.1533 29.0776C57.6823 28.3594 56.4601 27.4631 56.0228 26.5566C54.7105 28.1064 52.8133 30 50.8286 30C50.5885 30 50.3484 29.9599 50.1082 29.9198C48.6274 29.5989 47.5068 28.9171 46.7864 28.1551C46.4826 27.8355 46.2711 27.5505 46.1255 27.252C44.8682 28.62 43.2377 30 41.5434 30C41.3033 30 41.0631 29.9599 40.823 29.9198C39.3422 29.5989 38.2215 28.9171 37.5011 28.1551C36.7779 27.3941 36.5774 26.8295 36.5455 25.8105C35.3809 26.8155 33.7681 27.947 31.1375 29.4385C30.5772 29.7594 30.0569 29.8797 29.3765 29.8797C28.1759 29.8797 26.8551 29.3583 25.0141 28.3957C24.0135 27.8744 23.2931 26.7514 22.8529 25.4679C22.5327 24.5455 22.3326 23.5829 22.3326 22.6604C22.3326 22.0989 22.4126 21.5776 22.5727 21.0161C23.062 19.3085 23.8144 17.7078 24.7429 16.19L24.6964 16.1767C24.389 16.0887 24.0888 16.0027 23.8935 16.0027C23.6933 16.0027 22.1725 16.7647 21.0519 17.4866C17.73 19.6123 14.7283 22.8209 13.6877 27.5535C13.5276 28.2754 13.2074 28.7968 12.6071 29.3182C12.3269 29.5588 12.0068 29.6391 11.7266 29.6391C11.0862 29.6391 10.646 29.3583 9.92559 28.5562C9.48534 28.0749 9.16516 27.4332 9.16516 26.9519C9.16516 26.0479 9.72838 25.2427 10.2869 24.4442C10.67 23.8965 11.0509 23.3519 11.2463 22.7808C12.1268 20.254 12.9673 17.7273 13.6477 15.1604C13.8878 14.2781 14.0479 13.3556 14.0479 13.1551C14.0479 12.9794 13.9625 12.8512 13.8749 12.7196C13.7826 12.5809 13.6877 12.4384 13.6877 12.2326C13.6877 11.6711 14.6883 11.1497 15.7689 11.1497C16.6494 11.1497 17.3698 11.5909 17.4899 11.7915C18.0101 12.6738 18.1302 13.3957 18.1302 13.9572C18.1302 14.4706 18.079 14.8043 18.0585 14.9378C18.0534 14.9711 18.0502 14.992 18.0502 15C18.0502 15.0802 18.0902 15.1203 18.1302 15.1203C18.2103 15.1203 18.3303 15.0401 18.5304 14.8797C19.8112 13.9171 22.2926 12.2727 23.6133 12.2727C24.7387 12.2727 25.9258 12.5824 26.7675 13.3106C27.5731 12.2913 28.4401 11.3066 29.3365 10.3476C30.217 9.42514 31.7779 8.46257 33.8991 8.46257C34.6995 8.46257 35.7001 8.623 36.5806 8.94386C37.8213 9.38503 38.1815 10.5882 38.1815 11.631C38.1815 13.2353 36.9808 15.4412 36.0603 16.5642C33.5789 19.6123 30.6973 22.6604 27.1753 24.7861C26.7751 25.0268 26.7351 25.0669 26.7351 25.2674C26.7351 25.508 27.0953 26.2701 27.4555 26.4305C27.6956 26.5508 27.9357 26.631 28.2159 26.631C29.2521 26.631 30.4969 25.8544 31.1272 25.4612C31.2273 25.3987 31.3119 25.346 31.3777 25.3075C32.6873 24.5455 33.7851 23.5936 34.8299 22.6876C35.7648 21.8769 36.6573 21.103 37.6212 20.5348C37.667 20.5072 37.7117 20.4818 37.7555 20.4584C37.8117 20.3146 37.8683 20.171 37.9248 20.0275L37.9251 20.0266L37.9274 20.0207C38.0127 19.8042 38.0978 19.5879 38.1815 19.3717C39.9425 14.9198 43.3844 8.623 46.3861 3.52941C46.4908 3.35784 46.5931 3.07075 46.7136 2.73273L46.7137 2.73268L46.7137 2.73264C47.1003 1.64834 47.6737 0.040107 49.1077 0.040107C49.3787 0.040107 49.6171 0.0292258 49.8456 0.0187987C50.0557 0.00920721 50.2575 0 50.4684 0C51.2689 0 51.9893 0.320856 52.1494 0.681819C52.3495 1.123 52.5096 1.48396 52.5096 1.92513C52.5096 2.44653 52.3495 2.92781 52.0693 3.36899C51.1655 4.80806 50.234 6.21684 49.3083 7.61686C46.5446 11.7965 43.8325 15.898 42.0637 20.4947C41.9203 20.8666 41.7716 21.2135 41.6261 21.5528L41.6261 21.553L41.626 21.5531C41.0814 22.8237 40.5829 23.9868 40.5829 25.9492C40.5829 26.6711 40.783 26.8316 40.9431 26.8316C41.0231 26.8316 41.1432 26.7915 41.2632 26.7112C42.1552 26.1153 42.9065 25.311 43.6151 24.5522C44.5265 23.5764 45.3674 22.676 46.3464 22.3919C46.594 21.592 46.9026 20.8081 47.2099 20.0277L47.2103 20.0268C47.2963 19.8083 47.3823 19.59 47.4667 19.3717C49.2277 14.9198 52.6697 8.623 55.6714 3.52941C55.776 3.35784 55.8783 3.07075 55.9989 2.73273L55.9989 2.73268L55.9989 2.73264C56.3855 1.64834 56.9589 0.040107 58.3929 0.040107C58.6639 0.040107 58.9023 0.0292258 59.1308 0.0187987C59.341 0.00920721 59.5427 0 59.7537 0C60.5541 0 61.2745 0.320856 61.4346 0.681819C61.6347 1.123 61.7948 1.48396 61.7948 1.92513C61.7948 2.44653 61.6347 2.92781 61.3546 3.36899C60.4508 4.80806 59.5192 6.21683 58.5935 7.61685C55.8298 11.7965 53.1178 15.898 51.3489 20.4947C51.2055 20.8667 51.0567 21.2137 50.9113 21.5531C50.3666 22.8237 49.8681 23.9868 49.8681 25.9492C49.8681 26.6711 50.0682 26.8316 50.2283 26.8316C50.3083 26.8316 50.4284 26.7915 50.5485 26.7112C51.4405 26.1153 52.1917 25.3109 52.9003 24.5522ZM5.70321 8.75652L5.70319 8.75652L5.70316 8.75652C5.44571 8.77929 4.94545 8.82354 4.20237 8.82354C3.04171 8.82354 1.88106 8.66311 1.28072 7.94118C1.08061 7.70054 1.08061 7.41979 1.08061 7.05883C1.08061 6.3369 1.20068 5.53476 1.40079 5.33423C1.6009 5.13369 1.84104 4.89305 2.32131 4.89305C2.65181 4.89305 2.83378 4.93646 3.05461 4.98915C3.39535 5.07044 3.82862 5.1738 5.04284 5.1738C7.12401 5.1738 10.0056 4.73262 10.8061 4.5722C12.6471 4.21123 14.6082 3.93048 16.7694 3.93048C18.5304 3.93048 21.0519 5.61498 21.0519 6.2968C21.0519 7.01872 20.7717 7.4599 20.2114 7.86097C19.9712 8.0214 19.2909 8.30214 18.8906 8.30214C18.4104 8.30214 18.1302 8.0214 17.8501 7.74065C17.73 7.62033 16.9295 7.33958 16.7294 7.33958C14.9684 7.33958 13.0473 7.58022 11.4464 7.94118C11.5265 8.0615 11.5665 8.18182 11.5665 8.26204C11.5665 8.37404 11.5166 8.46103 11.2563 8.91435L11.2563 8.91436L11.2563 8.91438L11.2562 8.91448C11.0505 9.27278 10.7134 9.8599 10.1657 10.869C7.56426 15.6818 5.88331 20.2941 4.76268 26.1899C4.64262 26.8316 4.60259 27.6738 4.60259 28.476C4.60259 29.3984 4.16234 29.9599 3.28185 29.9599C2.68151 29.9599 1.80101 29.6792 0.720406 29.0375C0.16009 28.7166 0 28.115 0 27.5535C0 26.9519 0.120068 26.3503 0.16009 26.1899C1.64092 20.2941 3.32187 14.9599 5.76325 9.70589C6.0434 9.10428 6.08343 8.98396 6.08343 8.90375C6.08343 8.78343 6.00338 8.74332 5.88331 8.74332C5.85243 8.74332 5.7924 8.74863 5.70324 8.75652L5.70321 8.75652ZM33.8591 12.0722C33.8591 12.4332 33.739 12.6738 33.2587 13.4358C33.049 13.7686 32.969 13.9561 32.8955 14.1285C32.8006 14.3509 32.7164 14.5482 32.3782 15C31.2176 16.5642 29.7768 18.1284 27.8957 19.853C27.3754 20.3342 27.2954 20.3342 27.2153 20.3342C27.1753 20.3342 27.0953 20.2941 27.0953 20.2139C27.0953 20.0936 27.1353 19.9332 27.5355 19.0909C28.7762 16.484 30.2971 14.7594 31.978 13.0749C32.8985 12.1524 33.4588 11.8316 33.659 11.8316C33.779 11.8316 33.8591 11.8717 33.8591 12.0722ZM64.7565 13.2353C64.7164 13.1551 64.6764 13.115 64.6364 13.115C64.5163 13.115 64.2762 13.1551 63.956 13.5963C61.9949 16.1631 59.0332 20.8155 59.0332 23.9439C59.0332 24.1444 59.0733 24.6658 59.2334 25.107C59.3534 25.4278 59.6736 25.9492 59.8737 25.9492C60.1139 25.9492 60.394 25.8289 60.8743 25.107C60.9273 25.0273 60.9803 24.9477 61.0333 24.8681C63.1421 21.7006 65.2367 18.5544 65.2367 14.7594C65.2367 14.3182 65.2367 13.7567 65.0767 13.6364C64.8765 13.4759 64.7965 13.3556 64.7565 13.2353Z" fill="#251C15"/>
</svg>
