<svg width="12" height="12" viewBox="0 0 12 12" fill="none" xmlns="http://www.w3.org/2000/svg">
<path d="M6.70588 5.29412H11.2941C11.684 5.29412 12 5.61015 12 6C12 6.38985 11.684 6.70588 11.2941 6.70588H6.70588V11.2941C6.70588 11.684 6.38985 12 6 12C5.61015 12 5.29412 11.684 5.29412 11.2941V6.70588H0.705884C0.316035 6.70588 0 6.38985 0 6C0 5.61015 0.316035 5.29412 0.705883 5.29412H5.29412V0.705884C5.29412 0.316035 5.61015 0 6 0C6.38985 0 6.70588 0.316035 6.70588 0.705883V5.29412Z" fill="white"/>
</svg>
