<svg width="20" height="20" viewBox="0 0 20 20" fill="none" xmlns="http://www.w3.org/2000/svg">
<g opacity="0.2">
<rect opacity="0.01" width="20" height="20" fill="black"/>
<path d="M7.74167 17.5C6.35094 17.4933 5.02105 16.9289 4.05 15.9333C3.08641 15.02 2.52559 13.761 2.4912 12.4338C2.45681 11.1067 2.95167 9.82028 3.86667 8.85832L10 2.66666C10.6619 2.006 11.5651 1.64471 12.5 1.66666C13.5011 1.67006 14.4589 2.0754 15.1583 2.79166C16.5926 4.17257 16.6483 6.45057 15.2833 7.89999L9.11667 14.0917C8.7177 14.4933 8.17446 14.7184 7.60833 14.7167C6.99665 14.7175 6.41061 14.471 5.98333 14.0333C5.10353 13.1815 5.07379 11.78 5.91667 10.8917L11.6083 5.17499C11.9425 4.95303 12.3875 5.00071 12.667 5.28846C12.9466 5.5762 12.9815 6.02231 12.75 6.34999L7.05833 12.0667C6.86087 12.3045 6.89054 12.6568 7.125 12.8583C7.24226 12.9764 7.40034 13.045 7.56667 13.05C7.69111 13.0518 7.81111 13.0038 7.9 12.9167L14.0583 6.72499C14.7776 5.92593 14.7219 4.69738 13.9333 3.96666C13.2024 3.20778 12.0057 3.15288 11.2083 3.84166L5.05 9.99999C4.44516 10.6496 4.1244 11.5137 4.15882 12.4006C4.19323 13.2876 4.57998 14.1242 5.23333 14.725C5.88863 15.4043 6.7895 15.7917 7.73333 15.8C8.54697 15.8066 9.3297 15.4887 9.90833 14.9167L16.0667 8.72499C16.3911 8.39822 16.9191 8.39635 17.2458 8.72082C17.5726 9.04529 17.5745 9.57322 17.25 9.89999L11.0917 16.0917C10.2085 16.9905 9.0018 17.4978 7.74167 17.5Z" fill="black"/>
</g>
</svg>
