<svg width="16" height="16" viewBox="0 0 16 16" fill="none" xmlns="http://www.w3.org/2000/svg">
<path fill-rule="evenodd" clip-rule="evenodd" d="M12.7159 11.463L15.7371 14.4753C15.9054 14.6422 16 14.8693 16 15.1062C16 15.3432 15.9054 15.5703 15.7371 15.7371C15.5703 15.9054 15.3432 16 15.1062 16C14.8693 16 14.6422 15.9054 14.4753 15.7371L11.463 12.7159C10.2211 13.6907 8.68756 14.2196 7.10882 14.2176C3.18273 14.2176 0 11.0349 0 7.10882C0 3.18273 3.18273 0 7.10882 0C11.0349 0 14.2176 3.18273 14.2176 7.10882C14.2196 8.68756 13.6907 10.2211 12.7159 11.463ZM7.10882 1.7772C4.16425 1.7772 1.7772 4.16425 1.7772 7.10882C1.7772 10.0534 4.16425 12.4404 7.10882 12.4404C10.0534 12.4404 12.4404 10.0534 12.4404 7.10882C12.4404 4.16425 10.0534 1.7772 7.10882 1.7772Z" fill="black"/>
</svg>
